<svg width="32" height="32" viewBox="0 0 32 32" fill="none" xmlns="http://www.w3.org/2000/svg">
<path fill-rule="evenodd" clip-rule="evenodd" d="M32 16C32 24.8366 24.8366 32 16 32C7.16344 32 0 24.8366 0 16C0 7.16344 7.16344 0 16 0C24.8366 0 32 7.16344 32 16ZM21.4285 24H13.4285C12.7465 24 12.0925 23.7291 11.6102 23.2469C11.128 22.7647 10.8571 22.1106 10.8571 21.4286V13.4286C10.8571 12.7466 11.128 12.0926 11.6102 11.6103C12.0925 11.1281 12.7465 10.8572 13.4285 10.8572H21.4285C22.1105 10.8572 22.7645 11.1281 23.2468 11.6103C23.729 12.0926 23.9999 12.7466 23.9999 13.4286V21.4286C23.9999 22.1106 23.729 22.7647 23.2468 23.2469C22.7645 23.7291 22.1105 24 21.4285 24ZM20.9957 9.71429H12.5714C11.8137 9.71429 11.0869 10.0153 10.5511 10.5511C10.0153 11.0869 9.71429 11.8137 9.71429 12.5714V20.9957C9.2133 20.8179 8.7796 20.4895 8.47267 20.0554C8.16575 19.6214 8.00064 19.103 8 18.5714V10.5714C8 9.88944 8.27092 9.23539 8.75315 8.75315C9.23539 8.27092 9.88944 8 10.5714 8H18.5714C19.103 8.00064 19.6214 8.16575 20.0554 8.47267C20.4895 8.7796 20.8179 9.2133 20.9957 9.71429Z" fill="white"/>
</svg>
