<svg width="32" height="32" viewBox="0 0 32 32" fill="none" xmlns="http://www.w3.org/2000/svg">
<path fill-rule="evenodd" clip-rule="evenodd" d="M32 16C32 24.8366 24.8366 32 16 32C7.16344 32 0 24.8366 0 16C0 7.16344 7.16344 0 16 0C24.8366 0 32 7.16344 32 16ZM17.8415 13.8229C18.497 13.496 19.3311 13.0149 20.1662 12.3557C20.3422 12.7213 20.3615 13.0404 20.2708 13.298C20.2065 13.4796 20.0854 13.6375 19.9261 13.7632C19.7536 13.8989 19.5382 13.9978 19.3 14.0512C18.8482 14.153 18.3206 14.0936 17.8415 13.8229ZM17.9552 17.1719L18.8229 17.6731C17.1636 18.6031 16.6358 20.2793 16.1056 21.9636C16.0696 22.0777 16.0337 22.1919 15.9974 22.3059C15.9611 22.192 15.9252 22.078 15.8893 21.964C15.359 20.2796 14.8313 18.6031 13.1719 17.6731L14.0397 17.1719C14.1236 17.1402 14.1953 17.0827 14.2446 17.0077C14.2939 16.9327 14.3181 16.844 14.3139 16.7544C14.2344 15.0724 14.6886 14.3287 15.3012 13.8617C15.5209 13.6944 15.7607 13.6104 15.9974 13.6104C16.234 13.6104 16.4739 13.6944 16.6937 13.8617C17.3062 14.3287 17.7604 15.0724 17.6809 16.7544C17.6767 16.844 17.7009 16.9327 17.7502 17.0077C17.7995 17.0827 17.8712 17.1402 17.9552 17.1719ZM15.9974 6.18959C17.0004 6.21652 18.0059 6.41123 18.8785 6.79002C19.4828 7.05266 20.0467 7.39959 20.5572 7.81445C20.7878 8.00173 20.9777 8.18266 21.1868 8.39095C21.7509 8.41045 22.5752 7.7838 22.9579 7.19745C22.2993 9.35673 19.2937 11.9067 17.2129 12.8824L17.2114 12.8814L17.2109 12.8811C16.8374 12.5959 16.4174 12.4534 15.9974 12.4534C15.5773 12.4534 15.1574 12.5959 14.7839 12.8811L14.7831 12.8817L14.7819 12.8824C12.701 11.9067 9.69551 9.35673 9.03687 7.19745C9.41951 7.7838 10.2439 8.41045 10.8079 8.39095C11.0172 8.18273 11.207 8.00173 11.4375 7.81445C11.9481 7.39959 12.5119 7.05266 13.1162 6.79002C13.9889 6.41123 14.9944 6.21652 15.9974 6.18959ZM14.1532 13.8229C13.4978 13.496 12.6637 13.0149 11.8287 12.3557C11.6526 12.7213 11.6333 13.0404 11.7239 13.298C11.7883 13.4796 11.9094 13.6375 12.0687 13.7632C12.2412 13.8989 12.4567 13.9978 12.6948 14.0512C13.1467 14.153 13.6742 14.0936 14.1532 13.8229ZM22.2712 10.1122C21.9455 10.5704 21.5404 11.0839 21.0807 11.5479L21.0807 11.5479L21.2243 11.8462C21.5032 12.4254 21.5956 13.073 21.3782 13.6889C21.2382 14.0857 20.9825 14.4259 20.653 14.6856C20.3331 14.9378 19.9543 15.1078 19.5578 15.1971C19.2995 15.2552 19.0364 15.2792 18.775 15.271C18.836 15.6168 18.8626 15.9754 18.8643 16.3409L21.1975 17.6884L19.3971 18.6977C19.2532 18.7783 19.1162 18.8708 18.9875 18.974C17.7768 20.061 16.9599 22.8842 16.3671 24.9332C16.233 25.3964 16.1105 25.8201 15.9974 26.1752C15.8843 25.8202 15.7618 25.3967 15.6279 24.9337C15.035 22.8847 14.2181 20.0611 13.0073 18.974C12.8786 18.8708 12.7416 18.7783 12.5977 18.6977L10.7973 17.6884L13.1305 16.3409C13.1322 15.9754 13.1588 15.6168 13.2198 15.271C12.9584 15.2792 12.6952 15.2552 12.437 15.1971C12.0405 15.1078 11.6617 14.9378 11.3417 14.6856C11.0122 14.4259 10.7565 14.0857 10.6165 13.6889C10.3992 13.073 10.4915 12.4254 10.7705 11.8462L10.914 11.5479C10.4542 11.0839 10.0492 10.5705 9.72353 10.1123L9.55817 10.4237C9.02546 11.4891 8.74881 12.5503 8.74881 13.7447L8.74996 15.6398L8.73996 16.6222C8.70131 19.0341 8.17946 21.4743 6.99731 23.7074L9.47074 21.713L11.2208 24.5529L13.0593 22.8222L15.9973 27.5899L18.9353 22.8221L20.7739 24.5529L22.524 21.7129L24.9973 23.7074C23.8152 21.4742 23.2933 19.034 23.2547 16.6222L23.2447 15.6397L23.2459 13.7446C23.2459 12.5503 22.9692 11.4891 22.4366 10.4236L22.2712 10.1122Z" fill="white"/>
</svg>
