<svg width="33" height="32" viewBox="0 0 33 32" fill="none" xmlns="http://www.w3.org/2000/svg">
<g clip-path="url(#clip0_91_16)">
<path fill-rule="evenodd" clip-rule="evenodd" d="M16.2805 0.000686646C7.27552 0.000686646 -0.00415039 7.33402 -0.00415039 16.4064C-0.00415039 23.6584 4.66018 29.797 11.1308 31.9697C11.9398 32.133 12.2362 31.6167 12.2362 31.1824C12.2362 30.802 12.2095 29.4984 12.2095 28.14C7.67952 29.118 6.73618 26.1844 6.73618 26.1844C6.00818 24.283 4.92952 23.7944 4.92952 23.7944C3.44685 22.7894 5.03752 22.7894 5.03752 22.7894C6.68218 22.898 7.54518 24.4734 7.54518 24.4734C9.00085 26.972 11.3465 26.266 12.2902 25.8314C12.4248 24.772 12.8565 24.0387 13.3148 23.6314C9.70185 23.251 5.90052 21.8387 5.90052 15.537C5.90052 13.7444 6.54718 12.2777 7.57185 11.137C7.41018 10.7297 6.84385 9.04535 7.73385 6.79102C7.73385 6.79102 9.10885 6.35635 12.2092 8.47502C13.5365 8.11591 14.9054 7.93322 16.2805 7.93169C17.6555 7.93169 19.0572 8.12202 20.3515 8.47502C23.4522 6.35635 24.8272 6.79102 24.8272 6.79102C25.7172 9.04535 25.1505 10.7297 24.9888 11.137C26.0405 12.2777 26.6605 13.7444 26.6605 15.537C26.6605 21.8387 22.8592 23.2237 19.2192 23.6314C19.8125 24.1474 20.3245 25.125 20.3245 26.6734C20.3245 28.8734 20.2978 30.639 20.2978 31.182C20.2978 31.6167 20.5945 32.133 21.4032 31.97C27.8738 29.7967 32.5382 23.6584 32.5382 16.4064C32.5648 7.33402 25.2585 0.000686646 16.2805 0.000686646Z" fill="white"/>
</g>
<defs>
<clipPath id="clip0_91_16">
<rect width="32.6667" height="32" fill="white" transform="translate(-0.00415039 0.000686646)"/>
</clipPath>
</defs>
</svg>
