<svg width="32" height="32" viewBox="0 0 32 32" fill="none" xmlns="http://www.w3.org/2000/svg">
<g clip-path="url(#clip0_7_150)">
<path d="M15.9986 0.000694275C24.8342 0.000694275 31.9979 7.16439 31.9979 16C31.9979 24.8356 24.8342 31.9993 15.9986 31.9993C7.16296 31.9993 -0.000732422 24.8356 -0.000732422 16C-0.000732422 7.16439 7.16296 0.000694275 15.9986 0.000694275ZM23.1049 9.60028C22.4956 9.61095 21.5597 9.93227 17.0599 11.7802C15.4839 12.4268 12.3334 13.7668 7.60827 15.7987C6.84164 16.1 6.44032 16.3947 6.40299 16.6826C6.33366 17.236 7.1403 17.4079 8.15492 17.7346C8.98155 17.9999 10.0948 18.3106 10.6748 18.3226C11.1988 18.3332 11.7841 18.1199 12.4307 17.6826C16.8439 14.7401 19.1238 13.2535 19.2664 13.2215C19.3678 13.1988 19.5064 13.1708 19.6024 13.2535C19.6958 13.3361 19.6878 13.4934 19.6771 13.5361C19.5971 13.8734 15.4506 17.5973 15.2119 17.8426L15.0973 17.9573C14.2173 18.8252 13.3294 19.3932 14.8626 20.3905C16.2479 21.2904 17.0532 21.8651 18.4798 22.789C19.3918 23.3784 20.1064 24.0783 21.0464 23.993C21.4797 23.953 21.9263 23.5517 22.1543 22.3531C22.6916 19.5185 23.7462 13.3801 23.9902 10.8496C24.0052 10.6395 23.9963 10.4283 23.9636 10.2203C23.9442 10.0519 23.8618 9.89704 23.7329 9.78694C23.5383 9.63095 23.2396 9.59762 23.1049 9.60028Z" fill="white"/>
</g>
<defs>
<clipPath id="clip0_7_150">
<rect width="31.9986" height="31.9986" fill="white" transform="translate(0 0.000686646)"/>
</clipPath>
</defs>
</svg>
