<svg width="32" height="32" viewBox="0 0 32 32" fill="none" xmlns="http://www.w3.org/2000/svg">
<path fill-rule="evenodd" clip-rule="evenodd" d="M16 32C24.8366 32 32 24.8366 32 16C32 7.16344 24.8366 0 16 0C7.16344 0 0 7.16344 0 16C0 24.8366 7.16344 32 16 32ZM6.66431 7.99966H12.2491L16.2311 13.232L20.588 8.1013H23.4517L17.5847 15.0103L17.5726 14.9948L24.3866 23.9483H18.8019L14.6393 18.4787L9.95156 23.999H7.08789L13.2859 16.7003L6.66431 7.99966ZM11.4856 9.52342H9.747L19.5653 22.4244H21.3039L11.4856 9.52342Z" fill="white"/>
</svg>
